<svg xmlns="http://www.w3.org/2000/svg" viewBox="0 0 200 200">
  <!-- Colombian Eagle Silhouette -->
  <path d="M100 20 L80 40 L60 60 L70 80 L50 100 L60 120 L80 140 L100 160 L120 140 L140 120 L150 100 L130 80 L140 60 L120 40 Z" 
        fill="#8B4513" 
        stroke="#654321" 
        stroke-width="2"/>
  <!-- Wings -->
  <path d="M60 60 L40 50 L20 70 L30 90 L50 100 L60 80 Z" 
        fill="#A0522D"/>
  <path d="M140 60 L160 50 L180 70 L170 90 L150 100 L140 80 Z" 
        fill="#A0522D"/>
  <!-- Head -->
  <circle cx="100" cy="40" r="15" fill="#8B4513"/>
  <circle cx="95" cy="35" r="3" fill="#000"/>
  <path d="M105 35 L115 30 L110 40 Z" fill="#FFD700"/>
</svg>